<?xml version="1.0" encoding="UTF-8" standalone="no"?>
<!DOCTYPE svg PUBLIC "-//W3C//DTD SVG 1.1//EN"
 "http://www.w3.org/Graphics/SVG/1.1/DTD/svg11.dtd">
<!-- Generated by graphviz version 2.43.0 (0)
 -->
<!-- Title: G Pages: 1 -->
<svg width="625pt" height="520pt"
 viewBox="0.00 0.00 624.72 520.34" xmlns="http://www.w3.org/2000/svg" xmlns:xlink="http://www.w3.org/1999/xlink">
<g id="graph0" class="graph" transform="scale(1 1) rotate(0) translate(4 516.34)">
<title>G</title><style>.edge>path:hover{stroke-width:8}</style>
<polygon fill="white" stroke="transparent" points="-4,4 -4,-516.34 620.72,-516.34 620.72,4 -4,4"/>
<!-- spotterbase_rdf -->
<g id="node1" class="node">
<title>spotterbase_rdf</title><style>.edge>path:hover{stroke-width:8}</style>
<ellipse fill="#b30404" stroke="black" cx="227.56" cy="-21.21" rx="54.39" ry="21.43"/>
<text text-anchor="middle" x="227.56" y="-24.21" font-family="Helvetica,sans-Serif" font-size="10.00" fill="#ffffff">spotterbase.</text>
<text text-anchor="middle" x="227.56" y="-13.21" font-family="Helvetica,sans-Serif" font-size="10.00" fill="#ffffff">rdf</text>
</g>
<!-- spotterbase_rdf_bnode -->
<g id="node2" class="node">
<title>spotterbase_rdf_bnode</title><style>.edge>path:hover{stroke-width:8}</style>
<ellipse fill="#db2f2f" stroke="black" cx="274.56" cy="-295.38" rx="54.39" ry="28.98"/>
<text text-anchor="middle" x="274.56" y="-303.88" font-family="Helvetica,sans-Serif" font-size="10.00" fill="#ffffff">spotterbase.</text>
<text text-anchor="middle" x="274.56" y="-292.88" font-family="Helvetica,sans-Serif" font-size="10.00" fill="#ffffff">rdf.</text>
<text text-anchor="middle" x="274.56" y="-281.88" font-family="Helvetica,sans-Serif" font-size="10.00" fill="#ffffff">bnode</text>
</g>
<!-- spotterbase_rdf_bnode&#45;&gt;spotterbase_rdf -->
<g id="edge1" class="edge">
<title>spotterbase_rdf_bnode&#45;&gt;spotterbase_rdf</title><style>.edge>path:hover{stroke-width:8}</style>
<path fill="none" stroke="black" d="M356.56,-200.4C383.69,-154.83 462.14,-152.43 432.56,-108.42"/>
<path fill="none" stroke="black" d="M432.56,-106.42C424.17,-93.94 425.67,-87.33 413.56,-78.43 377.13,-51.65 327.87,-37.5 289.19,-30.1"/>
<polygon fill="#db2f2f" stroke="black" points="289.56,-26.61 279.09,-28.27 288.31,-33.49 289.56,-26.61"/>
</g>
<!-- spotterbase_rdf_serializer -->
<g id="node5" class="node">
<title>spotterbase_rdf_serializer</title><style>.edge>path:hover{stroke-width:8}</style>
<ellipse fill="#8f3d3d" stroke="black" cx="186.56" cy="-107.42" rx="54.39" ry="28.98"/>
<text text-anchor="middle" x="186.56" y="-115.92" font-family="Helvetica,sans-Serif" font-size="10.00" fill="#ffffff">spotterbase.</text>
<text text-anchor="middle" x="186.56" y="-104.92" font-family="Helvetica,sans-Serif" font-size="10.00" fill="#ffffff">rdf.</text>
<text text-anchor="middle" x="186.56" y="-93.92" font-family="Helvetica,sans-Serif" font-size="10.00" fill="#ffffff">serializer</text>
</g>
<!-- spotterbase_rdf_bnode&#45;&gt;spotterbase_rdf_serializer -->
<g id="edge2" class="edge">
<title>spotterbase_rdf_bnode&#45;&gt;spotterbase_rdf_serializer</title><style>.edge>path:hover{stroke-width:8}</style>
<path fill="none" stroke="black" d="M242.14,-272.05C228.69,-261.07 214.23,-246.69 205.56,-230.39 191.87,-204.65 187.36,-171.81 186.15,-146.7"/>
<polygon fill="#db2f2f" stroke="black" points="189.64,-146.33 185.81,-136.45 182.64,-146.56 189.64,-146.33"/>
</g>
<!-- spotterbase_rdf_to_rdflib -->
<g id="node6" class="node">
<title>spotterbase_rdf_to_rdflib</title><style>.edge>path:hover{stroke-width:8}</style>
<ellipse fill="#854747" stroke="black" cx="350.56" cy="-107.42" rx="54.39" ry="28.98"/>
<text text-anchor="middle" x="350.56" y="-115.92" font-family="Helvetica,sans-Serif" font-size="10.00" fill="#ffffff">spotterbase.</text>
<text text-anchor="middle" x="350.56" y="-104.92" font-family="Helvetica,sans-Serif" font-size="10.00" fill="#ffffff">rdf.</text>
<text text-anchor="middle" x="350.56" y="-93.92" font-family="Helvetica,sans-Serif" font-size="10.00" fill="#ffffff">to_rdflib</text>
</g>
<!-- spotterbase_rdf_bnode&#45;&gt;spotterbase_rdf_to_rdflib -->
<g id="edge3" class="edge">
<title>spotterbase_rdf_bnode&#45;&gt;spotterbase_rdf_to_rdflib</title><style>.edge>path:hover{stroke-width:8}</style>
<path fill="none" stroke="black" d="M301.14,-269.94C318.81,-252.52 341.46,-227.77 356.56,-202.4"/>
<path fill="none" stroke="black" d="M356.56,-200.4C366.14,-184.31 365.71,-163.71 362.41,-146.08"/>
<polygon fill="#db2f2f" stroke="black" points="365.78,-145.11 360.2,-136.1 358.95,-146.62 365.78,-145.11"/>
</g>
<!-- spotterbase_rdf_types -->
<g id="node7" class="node">
<title>spotterbase_rdf_types</title><style>.edge>path:hover{stroke-width:8}</style>
<ellipse fill="#b42d2d" stroke="black" cx="268.56" cy="-201.4" rx="54.39" ry="28.98"/>
<text text-anchor="middle" x="268.56" y="-209.9" font-family="Helvetica,sans-Serif" font-size="10.00" fill="#ffffff">spotterbase.</text>
<text text-anchor="middle" x="268.56" y="-198.9" font-family="Helvetica,sans-Serif" font-size="10.00" fill="#ffffff">rdf.</text>
<text text-anchor="middle" x="268.56" y="-187.9" font-family="Helvetica,sans-Serif" font-size="10.00" fill="#ffffff">types</text>
</g>
<!-- spotterbase_rdf_bnode&#45;&gt;spotterbase_rdf_types -->
<g id="edge4" class="edge">
<title>spotterbase_rdf_bnode&#45;&gt;spotterbase_rdf_types</title><style>.edge>path:hover{stroke-width:8}</style>
<path fill="none" stroke="black" d="M272.73,-266.29C272.2,-258.25 271.62,-249.35 271.07,-240.8"/>
<polygon fill="#db2f2f" stroke="black" points="274.55,-240.39 270.4,-230.64 267.56,-240.85 274.55,-240.39"/>
</g>
<!-- spotterbase_rdf_literal -->
<g id="node3" class="node">
<title>spotterbase_rdf_literal</title><style>.edge>path:hover{stroke-width:8}</style>
<ellipse fill="#c82323" stroke="black" cx="72.56" cy="-295.38" rx="54.39" ry="28.98"/>
<text text-anchor="middle" x="72.56" y="-303.88" font-family="Helvetica,sans-Serif" font-size="10.00" fill="#ffffff">spotterbase.</text>
<text text-anchor="middle" x="72.56" y="-292.88" font-family="Helvetica,sans-Serif" font-size="10.00" fill="#ffffff">rdf.</text>
<text text-anchor="middle" x="72.56" y="-281.88" font-family="Helvetica,sans-Serif" font-size="10.00" fill="#ffffff">literal</text>
</g>
<!-- spotterbase_rdf_literal&#45;&gt;spotterbase_rdf -->
<g id="edge5" class="edge">
<title>spotterbase_rdf_literal&#45;&gt;spotterbase_rdf</title><style>.edge>path:hover{stroke-width:8}</style>
<path fill="none" stroke="black" d="M71.85,-266.21C72.18,-221.53 79.01,-133.8 123.56,-78.43 137.49,-61.11 158.24,-48.39 177.55,-39.47"/>
<polygon fill="#c82323" stroke="black" points="179.12,-42.6 186.88,-35.39 176.32,-36.19 179.12,-42.6"/>
</g>
<!-- spotterbase_rdf_literal&#45;&gt;spotterbase_rdf_serializer -->
<g id="edge6" class="edge">
<title>spotterbase_rdf_literal&#45;&gt;spotterbase_rdf_serializer</title><style>.edge>path:hover{stroke-width:8}</style>
<path fill="none" stroke="black" d="M81.77,-266.46C88.51,-247.71 98.55,-222.8 110.56,-202.4"/>
</g>
<!-- spotterbase_rdf_literal&#45;&gt;spotterbase_rdf_to_rdflib -->
<g id="edge7" class="edge">
<title>spotterbase_rdf_literal&#45;&gt;spotterbase_rdf_to_rdflib</title><style>.edge>path:hover{stroke-width:8}</style>
<path fill="none" stroke="black" d="M95.54,-268.85C120.58,-242.16 162.81,-200.35 205.56,-172.41 233.58,-154.09 267.72,-138.74 295.83,-127.66"/>
<polygon fill="#c82323" stroke="black" points="297.43,-130.79 305.5,-123.92 294.91,-124.26 297.43,-130.79"/>
</g>
<!-- spotterbase_rdf_literal&#45;&gt;spotterbase_rdf_types -->
<g id="edge8" class="edge">
<title>spotterbase_rdf_literal&#45;&gt;spotterbase_rdf_types</title><style>.edge>path:hover{stroke-width:8}</style>
<path fill="none" stroke="black" d="M112.7,-275.55C143.48,-261.1 186.13,-241.08 219.04,-225.64"/>
<polygon fill="#c82323" stroke="black" points="220.91,-228.63 228.48,-221.21 217.94,-222.29 220.91,-228.63"/>
</g>
<!-- spotterbase_rdf_namespace_collection -->
<g id="node4" class="node">
<title>spotterbase_rdf_namespace_collection</title><style>.edge>path:hover{stroke-width:8}</style>
<ellipse fill="#a44646" stroke="black" cx="510.56" cy="-295.38" rx="88.28" ry="28.98"/>
<text text-anchor="middle" x="510.56" y="-303.88" font-family="Helvetica,sans-Serif" font-size="10.00" fill="#ffffff">spotterbase.</text>
<text text-anchor="middle" x="510.56" y="-292.88" font-family="Helvetica,sans-Serif" font-size="10.00" fill="#ffffff">rdf.</text>
<text text-anchor="middle" x="510.56" y="-281.88" font-family="Helvetica,sans-Serif" font-size="10.00" fill="#ffffff">namespace_collection</text>
</g>
<!-- spotterbase_rdf_namespace_collection&#45;&gt;spotterbase_rdf -->
<g id="edge9" class="edge">
<title>spotterbase_rdf_namespace_collection&#45;&gt;spotterbase_rdf</title><style>.edge>path:hover{stroke-width:8}</style>
<path fill="none" stroke="black" d="M514.54,-266.05C516.18,-247.57 516.51,-223.12 510.56,-202.4"/>
</g>
<!-- spotterbase_rdf_serializer&#45;&gt;spotterbase_rdf -->
<g id="edge10" class="edge">
<title>spotterbase_rdf_serializer&#45;&gt;spotterbase_rdf</title><style>.edge>path:hover{stroke-width:8}</style>
<path fill="none" stroke="black" d="M199.99,-78.85C204.27,-70.04 209.03,-60.27 213.37,-51.35"/>
<polygon fill="#8f3d3d" stroke="black" points="216.64,-52.63 217.87,-42.11 210.35,-49.56 216.64,-52.63"/>
</g>
<!-- spotterbase_rdf_types&#45;&gt;spotterbase_rdf -->
<g id="edge11" class="edge">
<title>spotterbase_rdf_types&#45;&gt;spotterbase_rdf</title><style>.edge>path:hover{stroke-width:8}</style>
<path fill="none" stroke="black" d="M265.96,-172.43C263.23,-147.47 258.11,-110.08 249.56,-78.43 247.16,-69.55 243.83,-60.17 240.48,-51.65"/>
<polygon fill="#b42d2d" stroke="black" points="243.62,-50.08 236.59,-42.15 237.14,-52.73 243.62,-50.08"/>
</g>
<!-- spotterbase_rdf_types&#45;&gt;spotterbase_rdf_serializer -->
<g id="edge12" class="edge">
<title>spotterbase_rdf_types&#45;&gt;spotterbase_rdf_serializer</title><style>.edge>path:hover{stroke-width:8}</style>
<path fill="none" stroke="black" d="M245.72,-174.78C236.57,-164.51 225.9,-152.55 216.17,-141.63"/>
<polygon fill="#b42d2d" stroke="black" points="218.55,-139.04 209.28,-133.9 213.32,-143.7 218.55,-139.04"/>
</g>
<!-- spotterbase_rdf_types&#45;&gt;spotterbase_rdf_to_rdflib -->
<g id="edge13" class="edge">
<title>spotterbase_rdf_types&#45;&gt;spotterbase_rdf_to_rdflib</title><style>.edge>path:hover{stroke-width:8}</style>
<path fill="none" stroke="black" d="M291.4,-174.78C300.55,-164.51 311.22,-152.55 320.95,-141.63"/>
<polygon fill="#b42d2d" stroke="black" points="323.8,-143.7 327.84,-133.9 318.57,-139.04 323.8,-143.7"/>
</g>
<!-- spotterbase_rdf_uri -->
<g id="node8" class="node">
<title>spotterbase_rdf_uri</title><style>.edge>path:hover{stroke-width:8}</style>
<ellipse fill="#f91010" stroke="black" cx="305.56" cy="-483.35" rx="54.39" ry="28.98"/>
<text text-anchor="middle" x="305.56" y="-491.85" font-family="Helvetica,sans-Serif" font-size="10.00" fill="#ffffff">spotterbase.</text>
<text text-anchor="middle" x="305.56" y="-480.85" font-family="Helvetica,sans-Serif" font-size="10.00" fill="#ffffff">rdf.</text>
<text text-anchor="middle" x="305.56" y="-469.85" font-family="Helvetica,sans-Serif" font-size="10.00" fill="#ffffff">uri</text>
</g>
<!-- spotterbase_rdf_uri&#45;&gt;spotterbase_rdf -->
<g id="edge14" class="edge">
<title>spotterbase_rdf_uri&#45;&gt;spotterbase_rdf</title><style>.edge>path:hover{stroke-width:8}</style>
<path fill="none" stroke="black" d="M510.56,-388.37C539.14,-345.35 583.08,-369.85 607.56,-324.37 619.77,-301.68 619.77,-289.08 607.56,-266.39 583.08,-220.91 524.8,-252.05 510.56,-202.4"/>
</g>
<!-- spotterbase_rdf_uri&#45;&gt;spotterbase_rdf_literal -->
<g id="edge15" class="edge">
<title>spotterbase_rdf_uri&#45;&gt;spotterbase_rdf_literal</title><style>.edge>path:hover{stroke-width:8}</style>
<path fill="none" stroke="black" d="M122.56,-388.37C108.02,-372.36 96.2,-351.36 87.71,-333.47"/>
<polygon fill="#f91010" stroke="black" points="90.67,-331.55 83.33,-323.91 84.31,-334.46 90.67,-331.55"/>
</g>
<!-- spotterbase_rdf_uri&#45;&gt;spotterbase_rdf_namespace_collection -->
<g id="edge16" class="edge">
<title>spotterbase_rdf_uri&#45;&gt;spotterbase_rdf_namespace_collection</title><style>.edge>path:hover{stroke-width:8}</style>
<path fill="none" stroke="black" d="M510.56,-388.37C520.65,-372.64 521.52,-352.07 519.48,-334.37"/>
<polygon fill="#f91010" stroke="black" points="522.92,-333.71 518,-324.34 516,-334.74 522.92,-333.71"/>
</g>
<!-- spotterbase_rdf_uri&#45;&gt;spotterbase_rdf_serializer -->
<g id="edge17" class="edge">
<title>spotterbase_rdf_uri&#45;&gt;spotterbase_rdf_serializer</title><style>.edge>path:hover{stroke-width:8}</style>
<path fill="none" stroke="black" d="M258.58,-468.44C218.11,-454.4 160.42,-429.19 122.56,-390.37"/>
<path fill="none" stroke="black" d="M122.56,-388.37C82.26,-347.05 38.63,-374.24 9.56,-324.37 -3.42,-302.11 -2.86,-288.97 9.56,-266.39 35.18,-219.83 85.19,-249.09 110.56,-202.4"/>
<path fill="none" stroke="black" d="M110.56,-200.4C121.68,-178.69 138.64,-157.5 153.73,-140.93"/>
<polygon fill="#f91010" stroke="black" points="156.69,-142.89 160.95,-133.19 151.57,-138.12 156.69,-142.89"/>
</g>
<!-- spotterbase_rdf_uri&#45;&gt;spotterbase_rdf_to_rdflib -->
<g id="edge18" class="edge">
<title>spotterbase_rdf_uri&#45;&gt;spotterbase_rdf_to_rdflib</title><style>.edge>path:hover{stroke-width:8}</style>
<path fill="none" stroke="black" d="M358.05,-475.04C406.99,-465.12 477.28,-442.24 510.56,-390.37"/>
<path fill="none" stroke="black" d="M510.56,-388.37C538.45,-344.9 441.48,-367.83 413.56,-324.37 383.9,-278.22 401.08,-256.88 394.56,-202.4"/>
</g>
<!-- spotterbase_rdf_uri&#45;&gt;spotterbase_rdf_types -->
<g id="edge19" class="edge">
<title>spotterbase_rdf_uri&#45;&gt;spotterbase_rdf_types</title><style>.edge>path:hover{stroke-width:8}</style>
<path fill="none" stroke="black" d="M122.56,-388.37C97.43,-360.69 181.98,-278.25 232.85,-232.99"/>
<polygon fill="#f91010" stroke="black" points="235.21,-235.57 240.39,-226.33 230.58,-230.32 235.21,-235.57"/>
</g>
<!-- spotterbase_rdf_vocab -->
<g id="node9" class="node">
<title>spotterbase_rdf_vocab</title><style>.edge>path:hover{stroke-width:8}</style>
<ellipse fill="#dd1818" stroke="black" cx="305.56" cy="-389.37" rx="54.39" ry="28.98"/>
<text text-anchor="middle" x="305.56" y="-397.87" font-family="Helvetica,sans-Serif" font-size="10.00" fill="#ffffff">spotterbase.</text>
<text text-anchor="middle" x="305.56" y="-386.87" font-family="Helvetica,sans-Serif" font-size="10.00" fill="#ffffff">rdf.</text>
<text text-anchor="middle" x="305.56" y="-375.87" font-family="Helvetica,sans-Serif" font-size="10.00" fill="#ffffff">vocab</text>
</g>
<!-- spotterbase_rdf_uri&#45;&gt;spotterbase_rdf_vocab -->
<g id="edge20" class="edge">
<title>spotterbase_rdf_uri&#45;&gt;spotterbase_rdf_vocab</title><style>.edge>path:hover{stroke-width:8}</style>
<path fill="none" stroke="black" d="M305.56,-454.25C305.56,-446.21 305.56,-437.31 305.56,-428.77"/>
<polygon fill="#f91010" stroke="black" points="309.06,-428.61 305.56,-418.61 302.06,-428.61 309.06,-428.61"/>
</g>
<!-- spotterbase_rdf_vocab&#45;&gt;spotterbase_rdf -->
<g id="edge21" class="edge">
<title>spotterbase_rdf_vocab&#45;&gt;spotterbase_rdf</title><style>.edge>path:hover{stroke-width:8}</style>
<path fill="none" stroke="black" d="M356.56,-294.38C404.59,-230.75 532.54,-279.03 510.56,-202.4"/>
<path fill="none" stroke="black" d="M510.56,-200.4C495.78,-148.88 462.46,-152.91 432.56,-108.42"/>
</g>
<!-- spotterbase_rdf_vocab&#45;&gt;spotterbase_rdf_literal -->
<g id="edge22" class="edge">
<title>spotterbase_rdf_vocab&#45;&gt;spotterbase_rdf_literal</title><style>.edge>path:hover{stroke-width:8}</style>
<path fill="none" stroke="black" d="M262.04,-371.77C228.72,-358.99 181.64,-340.8 140.56,-324.37 135.17,-322.22 129.55,-319.95 123.94,-317.67"/>
<polygon fill="#dd1818" stroke="black" points="125.16,-314.38 114.58,-313.84 122.52,-320.86 125.16,-314.38"/>
</g>
<!-- spotterbase_rdf_vocab&#45;&gt;spotterbase_rdf_namespace_collection -->
<g id="edge23" class="edge">
<title>spotterbase_rdf_vocab&#45;&gt;spotterbase_rdf_namespace_collection</title><style>.edge>path:hover{stroke-width:8}</style>
<path fill="none" stroke="black" d="M346.55,-369.97C376.35,-356.6 417.15,-338.29 450.61,-323.28"/>
<polygon fill="#dd1818" stroke="black" points="452.14,-326.43 459.83,-319.15 449.27,-320.05 452.14,-326.43"/>
</g>
<!-- spotterbase_rdf_vocab&#45;&gt;spotterbase_rdf_serializer -->
<g id="edge24" class="edge">
<title>spotterbase_rdf_vocab&#45;&gt;spotterbase_rdf_serializer</title><style>.edge>path:hover{stroke-width:8}</style>
<path fill="none" stroke="black" d="M270.82,-366.57C208.85,-326.36 87.77,-241.1 110.56,-202.4"/>
</g>
<!-- spotterbase_rdf_vocab&#45;&gt;spotterbase_rdf_to_rdflib -->
<g id="edge25" class="edge">
<title>spotterbase_rdf_vocab&#45;&gt;spotterbase_rdf_to_rdflib</title><style>.edge>path:hover{stroke-width:8}</style>
<path fill="none" stroke="black" d="M318.2,-360.98C327.55,-342.02 341.27,-316.64 356.56,-296.38"/>
<path fill="none" stroke="black" d="M356.56,-294.38C383.21,-259.08 399.82,-246.32 394.56,-202.4"/>
<path fill="none" stroke="black" d="M394.56,-200.4C392.16,-180.38 383.19,-159.96 373.96,-143.47"/>
<polygon fill="#dd1818" stroke="black" points="376.92,-141.6 368.85,-134.74 370.88,-145.14 376.92,-141.6"/>
</g>
</g>
</svg>
